<svg xmlns="http://www.w3.org/2000/svg" version="1.1" xmlns:xlink="http://www.w3.org/1999/xlink" xmlns:svgjs="http://svgjs.com/svgjs" width="1440" height="560" preserveAspectRatio="none" viewBox="0 0 1440 560"><g mask="url(&quot;#SvgjsMask1004&quot;)" fill="none"><rect width="1440" height="560" x="0" y="0" fill="rgba(117, 142, 221, 1)"></rect><path d="M0,573.783C111.65,585.987,226.146,559.58,322.009,501.056C419.102,441.782,483.679,345.673,537.664,245.543C594.749,139.663,663.884,25.971,641.911,-92.293C620.101,-209.683,515.407,-290.642,423.813,-367.236C343.41,-434.472,245.322,-465.413,148.301,-505.066C39.249,-549.636,-67.84,-649.144,-180.332,-614.153C-292.998,-579.108,-305.097,-419.916,-389.736,-337.708C-486.397,-243.823,-677.87,-233.146,-707.861,-101.775C-737.218,26.82,-603.389,134.867,-521.168,238.009C-455.048,320.954,-368.909,377.832,-279.739,435.282C-190.463,492.8,-105.571,562.244,0,573.783" fill="#3f62d0"></path><path d="M1440 952.0609999999999C1529.376 956.4259999999999 1622.516 1008.579 1702.502 968.461 1783.315 927.927 1827.655 834.6669999999999 1849.141 746.848 1868.8029999999999 666.484 1828.513 587.718 1815.651 505.99 1803.001 425.60699999999997 1821.276 336.79200000000003 1774.166 270.444 1725.717 202.20999999999998 1639.394 177.108 1561.117 147.512 1476.991 115.70400000000001 1391.016 75.52699999999999 1302.629 92.15800000000002 1210.641 109.46600000000001 1123.798 162.88099999999997 1070.498 239.825 1019.229 313.837 1033.216 410.552 1020.347 499.663 1007.4680000000001 588.84 962.168 679.324 994.905 763.268 1028.063 848.2909999999999 1109.461 907.963 1193.476 943.5989999999999 1270.7359999999999 976.37 1356.177 947.967 1440 952.0609999999999" fill="#abbaea"></path></g><defs><mask id="SvgjsMask1004"><rect width="1440" height="560" fill="#ffffff"></rect></mask></defs></svg>